<svg xmlns="http://www.w3.org/2000/svg" width="232" height="104"><path fill="#54E6AF" fill-rule="evenodd" d="M4 96a4 4 0 1 1 0 8 4 4 0 0 1 0-8m224 0a4 4 0 1 1 0 8 4 4 0 0 1 0-8m-32 0a4 4 0 1 1 0 8 4 4 0 0 1 0-8m-32 0a4 4 0 1 1 0 8 4 4 0 0 1 0-8m-32 0a4 4 0 1 1 0 8 4 4 0 0 1 0-8m-32 0a4 4 0 1 1 0 8 4 4 0 0 1 0-8m-32 0a4 4 0 1 1 0 8 4 4 0 0 1 0-8m-32 0a4 4 0 1 1 0 8 4 4 0 0 1 0-8m192-32a4 4 0 1 1 0 8 4 4 0 0 1 0-8M4 64a4 4 0 1 1 0 8 4 4 0 0 1 0-8m32 0a4 4 0 1 1 0 8 4 4 0 0 1 0-8m32 0a4 4 0 1 1 0 8 4 4 0 0 1 0-8m32 0a4 4 0 1 1 0 8 4 4 0 0 1 0-8m32 0a4 4 0 1 1 0 8 4 4 0 0 1 0-8m32 0a4 4 0 1 1 0 8 4 4 0 0 1 0-8m32 0a4 4 0 1 1 0 8 4 4 0 0 1 0-8m32-32a4 4 0 1 1 0 8 4 4 0 0 1 0-8m-32 0a4 4 0 1 1 0 8 4 4 0 0 1 0-8m-32 0a4 4 0 1 1 0 8 4 4 0 0 1 0-8m-32 0a4 4 0 1 1 0 8 4 4 0 0 1 0-8m-32 0a4 4 0 1 1 0 8 4 4 0 0 1 0-8m-32 0a4 4 0 1 1 0 8 4 4 0 0 1 0-8m-32 0a4 4 0 1 1 0 8 4 4 0 0 1 0-8M4 32a4 4 0 1 1 0 8 4 4 0 0 1 0-8M36 0a4 4 0 1 1 0 8 4 4 0 0 1 0-8m32 0a4 4 0 1 1 0 8 4 4 0 0 1 0-8m32 0a4 4 0 1 1 0 8 4 4 0 0 1 0-8m32 0a4 4 0 1 1 0 8 4 4 0 0 1 0-8m32 0a4 4 0 1 1 0 8 4 4 0 0 1 0-8m32 0a4 4 0 1 1 0 8 4 4 0 0 1 0-8m32 0a4 4 0 1 1 0 8 4 4 0 0 1 0-8M4 0a4 4 0 1 1 0 8 4 4 0 0 1 0-8"/></svg>