<svg xmlns="http://www.w3.org/2000/svg" width="125" height="18"><defs><filter id="a"><feColorMatrix in="SourceGraphic" values="0 0 0 0 0.352941 0 0 0 0 0.400000 0 0 0 0 0.541176 0 0 0 1.000000 0"/></filter></defs><g fill="none" fill-rule="evenodd" filter="url(#a)" transform="translate(-255 -6)"><g fill-rule="nonzero"><g transform="translate(255 6)"><path fill="#FAB908" d="M7.72 11.91h2.205V5.558H7.719v3.705z"/><ellipse cx="1.103" cy="8.138" fill="#0066D9" rx="1.103" ry="1.092"/><ellipse cx="1.103" cy="9.329" fill="#0066D9" rx="1.103" ry="1.092"/><path fill="#0066D9" d="M0 8.138h2.205v1.191H0z"/><ellipse cx="16.541" cy="9.329" fill="#4285F4" rx="1.103" ry="1.092"/><ellipse cx="16.541" cy="8.138" fill="#4285F4" rx="1.103" ry="1.092"/><path fill="#4285F4" d="M17.644 9.33H15.44V8.139h2.205z"/><ellipse cx="4.912" cy="11.711" fill="#EA4335" rx="1.103" ry="1.092"/><ellipse cx="4.912" cy="12.902" fill="#EA4335" rx="1.103" ry="1.092"/><path fill="#EA4335" d="M3.809 11.711h2.205v1.191H3.809z"/><ellipse cx="4.912" cy="4.565" fill="#EA4335" rx="1.103" ry="1.092"/><ellipse cx="4.912" cy="8.436" fill="#EA4335" rx="1.103" ry="1.092"/><path fill="#EA4335" d="M3.809 4.565h2.205v3.896H3.809z"/><ellipse cx="12.732" cy="5.756" fill="#34A853" rx="1.103" ry="1.092"/><ellipse cx="12.732" cy="4.565" fill="#34A853" rx="1.103" ry="1.092"/><path fill="#34A853" d="M13.834 5.757H11.63V4.566h2.205z"/><ellipse cx="8.822" cy="2.283" fill="#FAB908" rx="1.103" ry="1.092"/><ellipse cx="8.822" cy="1.092" fill="#FAB908" rx="1.103" ry="1.092"/><path fill="#FAB908" d="M9.925 2.282H7.72v-1.19h2.205z"/><ellipse cx="8.822" cy="16.376" fill="#FAB908" rx="1.103" ry="1.092"/><ellipse cx="8.822" cy="15.185" fill="#FAB908" rx="1.103" ry="1.092"/><path fill="#FAB908" d="M9.925 16.376H7.72v-1.19h2.205z"/><ellipse cx="12.732" cy="12.902" fill="#34A853" rx="1.103" ry="1.092"/><ellipse cx="12.732" cy="9.032" fill="#34A853" rx="1.103" ry="1.092"/><path fill="#34A853" d="M13.834 12.902H11.63v-3.87h2.205z"/><ellipse cx="8.822" cy="5.558" fill="#FAB908" rx="1.103" ry="1.092"/><ellipse cx="8.822" cy="11.91" fill="#FAB908" rx="1.103" ry="1.092"/></g><path fill="#6A6C6F" d="M325.95 18.802h-1.349V8.95h3.578q1.334 0 2.309.833.975.832.975 2.098t-.975 2.099-2.31.833h-2.228v3.99zm0-5.201h2.258q.85 0 1.364-.537.513-.537.513-1.184t-.513-1.183q-.514-.537-1.364-.537h-2.258v3.44zm6.631-.73q1.041-1.032 2.654-1.032c1.613 0 1.96.342 2.654 1.025q1.04 1.026 1.04 2.567t-1.04 2.566q-1.041 1.026-2.654 1.025c-1.613-.001-1.96-.341-2.654-1.025q-1.04-1.025-1.04-2.566t1.04-2.56m.997 4.335q.705.66 1.657.66c.952 0 1.185-.222 1.65-.667q.696-.667.696-1.768c0-1.101-.232-1.324-.697-1.769a2.3 2.3 0 0 0-1.649-.667 2.3 2.3 0 0 0-1.65.667q-.696.668-.696 1.769c0 1.101.23 1.325.69 1.775zm9.417 1.816q-1.393 0-2.404-1.032-1.012-1.031-1.012-2.56 0-1.526 1.012-2.559 1.01-1.032 2.404-1.032.821 0 1.473.33t.975.826h.06l-.06-.936V8.95h1.35v9.853h-1.29v-.936h-.06q-.322.495-.975.826-.652.33-1.473.33zm.22-1.156q.952 0 1.62-.66.667-.66.667-1.775t-.667-1.775a2.22 2.22 0 0 0-1.62-.66q-.938 0-1.613.666-.675.668-.674 1.769c.001 1.101.225 1.323.674 1.768q.675.667 1.613.667m8.258 1.156q-1.613 0-2.653-1.025t-1.041-2.566 1.04-2.567q1.043-1.025 2.654-1.025 1.203 0 1.994.55.792.551 1.159 1.39l-1.232.482q-.556-1.266-2.009-1.266-.894 0-1.576.688-.681.688-.681 1.748t.681 1.747q.682.689 1.576.688 1.51 0 2.082-1.266l1.203.482q-.367.826-1.18 1.383-.814.557-2.017.557m6.397 0q-1.143 0-1.913-.619-.77-.62-.77-1.637 0-1.101.909-1.727.91-.627 2.243-.627 1.188 0 1.95.413v-.192q0-.744-.542-1.19-.543-.448-1.335-.448-.585 0-1.063.262-.476.26-.652.715l-1.232-.495q.25-.606.983-1.122t1.935-.516q1.378 0 2.287.757.91.758.91 2.133v4.073h-1.29v-.936h-.06q-.806 1.156-2.36 1.156m.22-1.156q.836 0 1.517-.584.682-.585.682-1.383-.572-.44-1.715-.44-.983 0-1.481.398-.498.399-.499.936 0 .495.455.785.455.288 1.04.288zm7.437 1.156q-1.202 0-1.986-.55a3.3 3.3 0 0 1-1.151-1.376l1.202-.468q.571 1.266 1.95 1.266.63 0 1.034-.261.402-.262.403-.688 0-.66-.983-.895l-1.451-.33a3.55 3.55 0 0 1-1.305-.626q-.615-.462-.616-1.246 0-.894.843-1.452.844-.557 2.002-.557.953 0 1.7.406.749.405 1.07 1.163l-1.172.454q-.396-.894-1.642-.894-.601 0-1.012.234-.41.233-.41.633 0 .577.953.784l1.422.316q1.012.221 1.495.757.484.537.484 1.211 0 .909-.792 1.514t-2.038.605m6.866-.11q-1.13 0-1.723-.564t-.594-1.596v-3.537h-1.26V12.06h1.26V9.995h1.35v2.064h1.759v1.156h-1.76v3.44q0 1.101.968 1.101.367 0 .616-.11l.469 1.087q-.44.18-1.085.18zm4.725.11q-1.202 0-1.987-.55a3.3 3.3 0 0 1-1.15-1.376l1.202-.468q.572 1.266 1.95 1.266.63 0 1.033-.261.404-.262.404-.688 0-.66-.983-.895l-1.451-.33a3.55 3.55 0 0 1-1.305-.626q-.616-.462-.616-1.246 0-.894.843-1.452.844-.557 2.001-.557.954 0 1.701.406.748.405 1.07 1.163l-1.172.454q-.396-.894-1.643-.894-.6 0-1.011.234-.41.233-.41.633 0 .577.952.784l1.422.316q1.012.221 1.496.757.483.537.484 1.211 0 .909-.792 1.514t-2.038.605"/><path fill="#65696D" d="M277.59 13.666c0-2.946 2.494-5.333 5.47-5.333 1.641 0 2.81.64 3.693 1.473l-1.046 1.026a3.73 3.73 0 0 0-2.648-1.046c-2.165 0-3.858 1.727-3.858 3.87 0 2.144 1.693 3.87 3.858 3.87 1.406 0 2.206-.558 2.72-1.066.42-.417.697-1.016.8-1.829h-3.52V13.18h4.956c.051.264.082.569.082.914 0 1.097-.297 2.448-1.272 3.403-.954.975-2.165 1.493-3.766 1.493-2.975 0-5.468-2.387-5.468-5.323zm14.458-1.473c1.918 0 3.478 1.443 3.478 3.434 0 1.98-1.56 3.433-3.478 3.433-1.92 0-3.479-1.452-3.479-3.433 0-1.991 1.56-3.434 3.479-3.434m0 5.506c1.046 0 1.96-.853 1.96-2.082 0-1.24-.914-2.083-1.96-2.083-1.057 0-1.96.843-1.96 2.083 0 1.229.913 2.082 1.96 2.082m7.592-5.506c1.919 0 3.479 1.443 3.479 3.434 0 1.98-1.56 3.433-3.479 3.433-1.918 0-3.478-1.452-3.478-3.433 0-1.991 1.56-3.434 3.478-3.434m0 5.506c1.047 0 1.96-.853 1.96-2.082 0-1.24-.903-2.083-1.96-2.083s-1.96.843-1.96 2.083c0 1.229.914 2.082 1.96 2.082m9.317-5.394h1.457v6.166c0 2.54-1.509 3.576-3.294 3.576-1.683 0-2.698-1.118-3.078-2.032l1.324-.548c.236.558.81 1.219 1.744 1.219 1.139 0 1.847-.701 1.847-2.012v-.497h-.052c-.338.416-.995.782-1.826.782-1.734 0-3.324-1.504-3.324-3.424 0-1.94 1.59-3.443 3.324-3.443.831 0 1.488.365 1.826.772h.052zm-1.744 5.303c1.036 0 1.857-.864 1.846-2.073 0-1.208-.81-2.092-1.846-2.092-1.047 0-1.93.884-1.93 2.092 0 1.2.883 2.073 1.93 2.073m4.237 1.219V8.74h1.519v10.087zm5.695-1.128c.78 0 1.313-.376 1.713-.945l1.18.783c-.39.558-1.303 1.523-2.893 1.523-1.97 0-3.438-1.513-3.438-3.433 0-2.042 1.488-3.434 3.273-3.434 1.796 0 2.678 1.412 2.966 2.184l.154.386-4.638 1.9c.359.68.903 1.036 1.683 1.036m-.113-4.185c-.78 0-1.857.68-1.816 2.001l3.098-1.27c-.164-.436-.677-.731-1.282-.731"/></g></g></svg>