<svg xmlns="http://www.w3.org/2000/svg" width="135" height="56"><g fill="none" fill-rule="evenodd"><path fill="#54E6AF" d="M28 0c15.464 0 28 12.536 28 28S43.464 56 28 56 0 43.464 0 28 12.536 0 28 0m-4.8 13.827c-1.535 0-2.758 1.048-2.979 2.553l-2.345 16.28c-.011.076-.04.274-.32.287-.269.011-.322-.172-.34-.25l-.758-3.34-.004-.015c-.492-2.056-2.337-3.548-4.388-3.548-.745 0-1.35.598-1.35 1.337 0 .738.605 1.337 1.35 1.337.798 0 1.553.637 1.759 1.484l.757 3.339.004.015c.34 1.426 1.612 2.377 3.09 2.312 1.479-.065 2.66-1.123 2.873-2.576l2.345-16.281c.013-.084.038-.26.303-.26l.09.008c.182.035.203.178.213.251l3.293 22.812c.223 1.538 1.464 2.6 3.025 2.6h.052c1.585-.023 2.817-1.13 2.996-2.69l.46-4.046a1.34 1.34 0 0 0-1.192-1.478 1.347 1.347 0 0 0-1.492 1.18l-.46 4.044c-.01.085-.035.312-.353.317-.315.006-.35-.222-.362-.306l-3.293-22.812c-.218-1.502-1.441-2.553-2.974-2.554m11.202 9.159c-1.4.036-2.486 1.023-2.643 2.4l-.572 5.004a1.34 1.34 0 0 0 1.19 1.479 1.347 1.347 0 0 0 1.493-1.178l.572-5.005.004-.024a.2.2 0 0 1 .053-.002l.005.021 1.06 6.401c.228 1.36 1.36 2.346 2.75 2.4l.119.003c1.34 0 2.486-.883 2.812-2.182l.004-.016.477-2.003c.264-1.036 1.211-1.816 2.208-1.816.745 0 1.35-.599 1.35-1.337 0-.739-.605-1.337-1.35-1.337-2.239 0-4.27 1.62-4.83 3.852l-.004.016-.477 2.003c-.016.063-.045.151-.203.145-.165-.006-.182-.103-.192-.164l-1.06-6.4c-.23-1.368-1.367-2.298-2.766-2.26"/><path fill="#FFF" fill-rule="nonzero" d="M74.97 45.806V36.31q.87 1.147 2.314 1.939 1.445.791 3.342.791 2.216 0 3.975-1.147 1.76-1.148 2.789-3.443 1.028-2.295 1.028-5.58v-.435q0-3.442-1.107-5.777-1.108-2.335-3.006-3.482-1.899-1.148-4.272-1.148-3.48 0-5.695 2.928l-.593-2.532h-4.549v27.383h5.775zm3.798-10.961q-1.662 0-2.73-1.247-1.067-1.245-1.067-3.541v-3.285q0-2.334 1.068-3.561 1.067-1.227 2.729-1.227 1.66 0 2.729 1.227 1.067 1.227 1.067 3.561v3.285q0 2.295-1.067 3.541c-1.067 1.246-1.622 1.247-2.73 1.247zm23.572 4.194q2.809 0 5.062-1.187 2.255-1.187 3.54-3.442t1.286-5.303v-1.148q0-3.046-1.286-5.302-1.285-2.255-3.54-3.443-2.254-1.187-5.062-1.187h-.633q-2.808 0-5.062 1.187t-3.54 3.443-1.286 5.302v1.148q0 3.047 1.286 5.303 1.285 2.254 3.54 3.442t5.062 1.187zm-.317-3.957q-1.937 0-3.144-1.266-1.206-1.266-1.206-3.68V26.93q0-2.414 1.206-3.68 1.207-1.267 3.144-1.267t3.145 1.266q1.206 1.267 1.206 3.68v3.206q0 2.415-1.206 3.68-1.207 1.266-3.145 1.266zm21.99 3.957q3.482 0 5.696-2.928l.593 2.533h4.549V10.152h-5.775v10.605q-.87-1.147-2.313-1.939-1.444-.79-3.342-.791-2.215 0-3.975 1.148t-2.789 3.442q-1.028 2.295-1.028 5.58v.435q0 3.442 1.107 5.778 1.108 2.334 3.006 3.482 1.899 1.147 4.272 1.147zm1.266-3.957q-1.66 0-2.729-1.246-1.067-1.247-1.067-3.542V27.01q0-2.335 1.067-3.562 1.068-1.227 2.73-1.226 1.661 0 2.728 1.226 1.068 1.227 1.068 3.562v3.284q0 2.295-1.068 3.542-1.067 1.246-2.729 1.246"/></g></svg>